# xmcd
#
# Track frame offsets: 
#        150
#        11850
#        29732
#        48935
#        66480
#        81702
#        93210
#        110560
#        126630
#        139787
#        156587
#        172965
#
# Disc length: 2474 seconds
#
# Revision: 1
# Processed by: cddbd v1.5.2PL0 Copyright (c) Steve Scherf et al.
# Submitted via: ExactAudioCopy v0.95b4
#
DISCID=b509a80c
DTITLE=Snooky Prior - Snooky
DYEAR=1900
DGENRE=Blues
TTITLE0=Broke And Hungry
TTITLE1=Nine Below Zero
TTITLE2=Judgement Day
TTITLE3=Why You Want To Do Me Like That
TTITLE4=It Hurts Me Too
TTITLE5=Look What You Do To Me
TTITLE6=Cheatin' And Lyin'
TTITLE7=Crazy 'bout My Baby
TTITLE8=Key To The Highway
TTITLE9=That's The Way To Do It
TTITLE10=Money And Women
TTITLE11=Don't Worry Bout Me
EXTD=
EXTT0=
EXTT1=
EXTT2=
EXTT3=
EXTT4=
EXTT5=
EXTT6=
EXTT7=
EXTT8=
EXTT9=
EXTT10=
EXTT11=
PLAYORDER=
